<svg width="23" height="19" viewBox="0 0 23 19" fill="none" xmlns="http://www.w3.org/2000/svg">
<path d="M0.285156 11.768C0.285156 15.8194 2.90981 18.1415 5.82079 18.1415C8.49317 18.1415 10.7838 15.8194 10.7838 12.9538C10.7838 10.187 8.92266 8.35892 6.63205 8.35892C6.10712 8.35892 5.62991 8.45773 5.3913 8.55655C6.01168 6.67908 8.20684 4.50516 9.73392 3.81346L6.25028 0.898438C2.52804 3.61583 0.285156 7.42019 0.285156 11.768ZM12.0722 11.768C12.0722 15.8194 14.6969 18.1415 17.6079 18.1415C20.2803 18.1415 22.5709 15.8194 22.5709 12.9538C22.5709 10.187 20.7098 8.35892 18.4191 8.35892C17.8942 8.35892 17.417 8.45773 17.1784 8.55655C17.7988 6.67908 19.9939 4.50516 21.521 3.81346L18.0374 0.898438C14.3151 3.61583 12.0722 7.42019 12.0722 11.768Z" fill="#006BFF"/>
</svg>
